# xmcd CD database file
#
# Track frame offsets:
#	150
#	23070
#	51012
#	70205
#	98852
#	117845
#	154317
#	179262
#	222465
#	253997
#	274725
#
# Disc length: 4198 seconds
#
# Revision: 0
# Processed by: cddbd v1.5.1PL0 Copyright (c) Steve Scherf et al.
# Submitted via: CDex 1.51
#
DISCID=a010640b
DTITLE=Paolo Achenza Trio - Do It
DYEAR=1900
DGENRE=Jazz
TTITLE0=Sweat
TTITLE1=Do It
TTITLE2=Minha Saudade
TTITLE3=Fez Bossa
TTITLE4=The Hipster
TTITLE5=Melodico
TTITLE6=Welcome New Warmth
TTITLE7=Backlash
TTITLE8=Wah Up
TTITLE9=New Bottle Old Wine
TTITLE10=Do It (Live)
EXTD=
EXTT0=
EXTT1=
EXTT2=
EXTT3=
EXTT4=
EXTT5=
EXTT6=
EXTT7=
EXTT8=
EXTT9=
EXTT10=
PLAYORDER=
